<svg width="30" height="42" viewBox="0 0 30 42" fill="none" xmlns="http://www.w3.org/2000/svg">
<path d="M14.8266 30.2141C18.2678 27.4333 20.8664 24.7568 22.6224 22.1846C24.3771 19.6124 25.2544 17.1966 25.2544 14.9372C25.2544 12.9907 24.8985 11.3306 24.1866 9.95689C23.4733 8.58459 22.5953 7.47228 21.5525 6.61998C20.5097 5.76906 19.3801 5.15243 18.1635 4.77007C16.9469 4.38772 15.8346 4.19654 14.8266 4.19654C13.8185 4.19654 12.7062 4.38772 11.4896 4.77007C10.2731 5.15243 9.14337 5.76906 8.10058 6.61998C7.05779 7.47228 6.18046 8.58459 5.46859 9.95689C4.75532 11.3306 4.39869 12.9907 4.39869 14.9372C4.39869 17.1966 5.27602 19.6124 7.03068 22.1846C8.78673 24.7568 11.3854 27.4333 14.8266 30.2141ZM14.8266 35.4801C9.92546 31.8651 6.26666 28.3544 3.85018 24.948C1.43509 21.5416 0.227539 18.2046 0.227539 14.9372C0.227539 12.4693 0.671071 10.3052 1.55814 8.44485C2.44381 6.58591 3.58184 5.03077 4.97222 3.77942C6.3626 2.52808 7.92678 1.58957 9.66476 0.963899C11.4027 0.338227 13.1233 0.0253906 14.8266 0.0253906C16.5298 0.0253906 18.2504 0.338227 19.9883 0.963899C21.7263 1.58957 23.2905 2.52808 24.6809 3.77942C26.0713 5.03077 27.21 6.58591 28.0971 8.44485C28.9827 10.3052 29.4256 12.4693 29.4256 14.9372C29.4256 18.2046 28.2173 21.5416 25.8008 24.948C23.3857 28.3544 19.7277 31.8651 14.8266 35.4801ZM14.8266 18.7956C15.9736 18.7956 16.9559 18.3868 17.7735 17.5692C18.5896 16.7531 18.9977 15.7715 18.9977 14.6244C18.9977 13.4773 18.5896 12.495 17.7735 11.6775C16.9559 10.8613 15.9736 10.4533 14.8266 10.4533C13.6795 10.4533 12.6979 10.8613 11.8817 11.6775C11.0642 12.495 10.6554 13.4773 10.6554 14.6244C10.6554 15.7715 11.0642 16.7531 11.8817 17.5692C12.6979 18.3868 13.6795 18.7956 14.8266 18.7956ZM2.31311 41.7369C1.16128 41.7369 0.227539 40.8031 0.227539 39.6513C0.227539 38.4995 1.16128 37.5657 2.31311 37.5657H27.34C28.4918 37.5657 29.4256 38.4995 29.4256 39.6513C29.4256 40.8031 28.4918 41.7369 27.34 41.7369H2.31311Z" fill="white"/>
</svg>
