<svg width="373" height="110" viewBox="0 0 373 110" fill="none" xmlns="http://www.w3.org/2000/svg">
<mask id="path-1-outside-1_1_74" maskUnits="userSpaceOnUse" x="0.305176" y="0" width="372" height="110" fill="black">
<rect fill="white" x="0.305176" width="372" height="110"/>
<path fill-rule="evenodd" clip-rule="evenodd" d="M118.602 38.2849C121.742 39.9738 125.185 40.8183 128.931 40.8183C132.676 40.8183 136.119 39.9738 139.259 38.2849C142.399 36.5593 144.878 34.1911 146.694 31.1804C148.51 28.133 149.418 24.7001 149.418 20.8816C149.418 17.0632 148.51 13.6486 146.694 10.6379C144.878 7.59049 142.399 5.22232 139.259 3.53339C136.157 1.84446 132.714 1 128.931 1C125.185 1 121.742 1.84446 118.602 3.53339C115.462 5.22232 112.965 7.59049 111.111 10.6379C109.295 13.6486 108.387 17.0632 108.387 20.8816C108.387 24.7001 109.295 28.133 111.111 31.1804C112.965 34.1911 115.462 36.5593 118.602 38.2849ZM135.627 28.0963C134 29.8954 131.768 30.7949 128.931 30.7949C126.055 30.7949 123.804 29.9137 122.177 28.1514C120.55 26.3523 119.737 23.929 119.737 20.8816C119.737 17.7975 120.55 15.3742 122.177 13.6119C123.804 11.8128 126.055 10.9133 128.931 10.9133C131.768 10.9133 134 11.8128 135.627 13.6119C137.292 15.3742 138.124 17.7975 138.124 20.8816C138.124 23.8923 137.292 26.2972 135.627 28.0963Z"/>
<path d="M13.2204 40.4328V1.60581H2.09726V40.4328H13.2204Z"/>
<path d="M57.7481 40.4328H46.625L31.813 18.7337V40.4328H20.6898V1.60581H31.813L46.625 23.5802V1.60581H57.7481V40.4328Z"/>
<path d="M102.278 40.4328H91.1544L76.3425 18.7337V40.4328H65.2193V1.60581H76.3425L91.1544 23.5802V1.60581H102.278V40.4328Z"/>
<path fill-rule="evenodd" clip-rule="evenodd" d="M297.149 38.2849C300.29 39.9738 303.733 40.8183 307.478 40.8183C311.224 40.8183 314.667 39.9738 317.807 38.2849C320.947 36.5593 323.425 34.1911 325.241 31.1804C327.057 28.133 327.965 24.7001 327.965 20.8816C327.965 17.0632 327.057 13.6486 325.241 10.6379C323.425 7.59049 320.947 5.22232 317.807 3.53339C314.704 1.84446 311.262 1 307.478 1C303.733 1 300.29 1.84446 297.149 3.53339C294.009 5.22232 291.512 7.59049 289.658 10.6379C287.842 13.6486 286.934 17.0632 286.934 20.8816C286.934 24.7001 287.842 28.133 289.658 31.1804C291.512 34.1911 294.009 36.5593 297.149 38.2849ZM314.175 28.0963C312.548 29.8954 310.316 30.7949 307.478 30.7949C304.603 30.7949 302.352 29.9137 300.725 28.1513C299.098 26.3523 298.284 23.929 298.284 20.8816C298.284 17.7975 299.098 15.3742 300.725 13.6119C302.352 11.8128 304.603 10.9133 307.478 10.9133C310.316 10.9133 312.548 11.8128 314.175 13.6119C315.839 15.3742 316.672 17.7975 316.672 20.8816C316.672 23.8923 315.839 26.2972 314.175 28.0963Z"/>
<path d="M180.465 40.4328L194.255 1.60581H182.394L173.371 29.6383L164.291 1.60581H152.373L166.22 40.4328H180.465Z"/>
<path fill-rule="evenodd" clip-rule="evenodd" d="M205.723 34.0993L203.566 40.4328H191.876L206.461 1.60581H219.286L233.815 40.4328H222.067L219.911 34.0993H205.723ZM217.13 25.8382L212.817 13.2814L208.561 25.8382H217.13Z"/>
<path d="M265.872 1.60581V10.1973H255.203V40.4328H244.08V10.1973H233.524V1.60581H265.872Z"/>
<path d="M282.246 1.60581V40.4328H271.123V1.60581H282.246Z"/>
<path d="M358.617 40.4328H369.74V1.60581H358.617V23.5802L343.805 1.60581H332.682V40.4328H343.805V18.7337L358.617 40.4328Z"/>
<path fill-rule="evenodd" clip-rule="evenodd" d="M43.6106 108.163H32.6415L29.2954 104.973C25.5906 107.476 21.4007 108.728 16.726 108.728C11.9931 108.728 8.2397 107.674 5.46589 105.566C2.69208 103.457 1.30518 100.606 1.30518 97.0102C1.30518 94.4313 1.88709 92.2383 3.05093 90.4312C4.23416 88.6052 6.25148 86.9017 9.10288 85.3204C7.64808 83.7016 6.59093 82.158 5.93142 80.6897C5.27192 79.2026 4.94216 77.5838 4.94216 75.8331C4.94216 72.9719 6.0672 70.6659 8.31729 68.9153C10.5868 67.1647 13.6127 66.2893 17.3952 66.2893C21.0031 66.2893 23.8836 67.1082 26.0367 68.7459C28.2092 70.3647 29.2954 72.5389 29.2954 75.2684C29.2954 77.5085 28.6262 79.5603 27.2878 81.4239C25.9494 83.2686 23.7866 85.0287 20.7994 86.704L29.0627 94.5254C30.4399 92.323 31.6328 89.49 32.6415 86.0263H41.894C41.1957 88.5676 40.2355 91.0523 39.0135 93.4807C37.7914 95.8901 36.4045 98.0266 34.8527 99.8902L43.6106 108.163ZM10.645 96.1913C10.645 97.8102 11.2657 99.0996 12.5071 100.06C13.7679 101.02 15.3779 101.5 17.337 101.5C19.7811 101.5 21.9827 100.926 23.9418 99.7773L14.2819 90.4594C13.1569 91.2877 12.2646 92.1536 11.6051 93.0571C10.965 93.9607 10.645 95.0054 10.645 96.1913ZM21.0904 76.172C21.0904 75.1743 20.7412 74.3931 20.0429 73.8284C19.3446 73.2448 18.4427 72.9531 17.337 72.9531C16.0374 72.9531 15.0093 73.2542 14.2529 73.8566C13.5158 74.459 13.1472 75.3155 13.1472 76.4261C13.1472 78.0826 14.0686 79.9085 15.9113 81.9039C17.5795 81.0003 18.8597 80.1156 19.752 79.2497C20.6443 78.365 21.0904 77.339 21.0904 76.172Z"/>
<path d="M70.8768 105.354C73.8657 107.483 77.6869 108.548 82.3405 108.548C85.405 108.548 88.0534 108.016 90.2856 106.951C92.5556 105.886 94.2771 104.436 95.4499 102.6C96.6606 100.764 97.266 98.69 97.266 96.3769C97.266 94.1005 96.6606 92.228 95.4499 90.7593C94.2771 89.254 92.8583 88.0975 91.1936 87.2897C89.5668 86.4452 87.4859 85.6008 84.951 84.7563C83.2485 84.1689 81.9622 83.6915 81.092 83.3244C80.2218 82.9205 79.484 82.4616 78.8787 81.9475C78.3112 81.3968 78.0274 80.7543 78.0274 80.02C78.0274 79.1388 78.2923 78.4595 78.8219 77.9822C79.3516 77.5049 80.0326 77.2663 80.865 77.2663C81.9622 77.2663 82.8513 77.56 83.5323 78.1475C84.2511 78.7349 84.6294 79.6161 84.6673 80.791H96.7552C96.566 76.9725 95.0716 74.0169 92.2719 71.9241C89.51 69.7946 85.8023 68.7298 81.1487 68.7298C78.2734 68.7298 75.7006 69.1888 73.4306 70.1067C71.1606 71.0246 69.3824 72.3831 68.096 74.1821C66.8097 75.9445 66.1665 78.074 66.1665 80.5707C66.1665 83.0307 66.7529 85.0317 67.9258 86.5737C69.1365 88.0791 70.5363 89.2356 72.1253 90.0434C73.7522 90.8144 75.8709 91.6222 78.4814 92.4666C80.9406 93.2377 82.7188 93.9353 83.816 94.5594C84.9132 95.1836 85.4618 96.0648 85.4618 97.203C85.4618 98.0841 85.1213 98.7817 84.4403 99.2958C83.7971 99.7731 82.9648 100.012 81.9432 100.012C80.8082 100.012 79.8813 99.6997 79.1625 99.0755C78.4436 98.4513 78.0274 97.46 77.9139 96.1015H66.053C66.28 100.104 67.8879 103.188 70.8768 105.354Z"/>
<path d="M117.533 84.3157V77.9822H132.004V69.3357H106.41V108.163H132.004V99.5161H117.533V92.5217H130.302V84.3157H117.533Z"/>
<path d="M140.111 88.6665C140.111 84.8481 140.925 81.4519 142.551 78.4779C144.216 75.4672 146.562 73.1357 149.588 71.4835C152.615 69.7946 156.096 68.9501 160.031 68.9501C165.025 68.9501 169.224 70.2536 172.629 72.8604C176.034 75.4305 178.229 78.9368 179.212 83.3795H167.238C166.519 81.9108 165.517 80.791 164.23 80.02C162.982 79.2489 161.525 78.8634 159.86 78.8634C157.288 78.8634 155.226 79.763 153.675 81.562C152.161 83.3244 151.405 85.6926 151.405 88.6665C151.405 91.6772 152.161 94.0821 153.675 95.8812C155.226 97.6436 157.288 98.5247 159.86 98.5247C161.525 98.5247 162.982 98.1392 164.23 97.3682C165.517 96.5972 166.519 95.4773 167.238 94.0087H179.212C178.229 98.4513 176.034 101.976 172.629 104.583C169.224 107.153 165.025 108.438 160.031 108.438C156.096 108.438 152.615 107.612 149.588 105.96C146.562 104.271 144.216 101.939 142.551 98.9653C140.925 95.9546 140.111 92.5217 140.111 88.6665Z"/>
<path d="M199.348 91.8608V69.3357H188.282V91.8608C188.282 95.459 189.001 98.5064 190.438 101.003C191.914 103.5 193.919 105.391 196.454 106.676C199.027 107.924 201.94 108.548 205.194 108.548C208.447 108.548 211.398 107.924 214.047 106.676C216.733 105.391 218.852 103.5 220.403 101.003C221.954 98.4697 222.73 95.4223 222.73 91.8608V69.3357H211.607V91.8608C211.607 93.9169 211.077 95.5324 210.018 96.7073C208.996 97.8455 207.464 98.4146 205.421 98.4146C203.378 98.4146 201.845 97.8455 200.824 96.7073C199.84 95.5691 199.348 93.9536 199.348 91.8608Z"/>
<path fill-rule="evenodd" clip-rule="evenodd" d="M245.141 93.8435H243.95V108.163H232.826V69.3357H250.362C253.578 69.3357 256.302 69.8864 258.535 70.9879C260.767 72.0526 262.45 73.5396 263.585 75.4488C264.72 77.3214 265.288 79.4325 265.288 81.7823C265.288 84.4259 264.531 86.7573 263.018 88.7767C261.542 90.7593 259.367 92.1729 256.492 93.0174L265.515 108.163H253.087L245.141 93.8435ZM243.95 86.4636H249.454C250.968 86.4636 252.103 86.1148 252.86 85.4172C253.616 84.7196 253.995 83.7099 253.995 82.3881C253.995 81.1398 253.597 80.1668 252.803 79.4692C252.046 78.7349 250.93 78.3678 249.454 78.3678H243.95V86.4636Z"/>
<path d="M285.442 108.163V69.3357H274.319V108.163H285.442Z"/>
<path d="M325.884 69.3357V77.9272H315.215V108.163H304.091V77.9272H293.536V69.3357H325.884Z"/>
<path d="M356.275 95.8261L370.349 69.3357H357.807L350.77 84.3157L343.733 69.3357H331.021L345.095 95.8261V108.163H356.275V95.8261Z"/>
</mask>
<path fill-rule="evenodd" clip-rule="evenodd" d="M118.602 38.2849C121.742 39.9738 125.185 40.8183 128.931 40.8183C132.676 40.8183 136.119 39.9738 139.259 38.2849C142.399 36.5593 144.878 34.1911 146.694 31.1804C148.51 28.133 149.418 24.7001 149.418 20.8816C149.418 17.0632 148.51 13.6486 146.694 10.6379C144.878 7.59049 142.399 5.22232 139.259 3.53339C136.157 1.84446 132.714 1 128.931 1C125.185 1 121.742 1.84446 118.602 3.53339C115.462 5.22232 112.965 7.59049 111.111 10.6379C109.295 13.6486 108.387 17.0632 108.387 20.8816C108.387 24.7001 109.295 28.133 111.111 31.1804C112.965 34.1911 115.462 36.5593 118.602 38.2849ZM135.627 28.0963C134 29.8954 131.768 30.7949 128.931 30.7949C126.055 30.7949 123.804 29.9137 122.177 28.1514C120.55 26.3523 119.737 23.929 119.737 20.8816C119.737 17.7975 120.55 15.3742 122.177 13.6119C123.804 11.8128 126.055 10.9133 128.931 10.9133C131.768 10.9133 134 11.8128 135.627 13.6119C137.292 15.3742 138.124 17.7975 138.124 20.8816C138.124 23.8923 137.292 26.2972 135.627 28.0963Z" fill="white"/>
<path d="M13.2204 40.4328V1.60581H2.09726V40.4328H13.2204Z" fill="white"/>
<path d="M57.7481 40.4328H46.625L31.813 18.7337V40.4328H20.6898V1.60581H31.813L46.625 23.5802V1.60581H57.7481V40.4328Z" fill="white"/>
<path d="M102.278 40.4328H91.1544L76.3425 18.7337V40.4328H65.2193V1.60581H76.3425L91.1544 23.5802V1.60581H102.278V40.4328Z" fill="white"/>
<path fill-rule="evenodd" clip-rule="evenodd" d="M297.149 38.2849C300.29 39.9738 303.733 40.8183 307.478 40.8183C311.224 40.8183 314.667 39.9738 317.807 38.2849C320.947 36.5593 323.425 34.1911 325.241 31.1804C327.057 28.133 327.965 24.7001 327.965 20.8816C327.965 17.0632 327.057 13.6486 325.241 10.6379C323.425 7.59049 320.947 5.22232 317.807 3.53339C314.704 1.84446 311.262 1 307.478 1C303.733 1 300.29 1.84446 297.149 3.53339C294.009 5.22232 291.512 7.59049 289.658 10.6379C287.842 13.6486 286.934 17.0632 286.934 20.8816C286.934 24.7001 287.842 28.133 289.658 31.1804C291.512 34.1911 294.009 36.5593 297.149 38.2849ZM314.175 28.0963C312.548 29.8954 310.316 30.7949 307.478 30.7949C304.603 30.7949 302.352 29.9137 300.725 28.1513C299.098 26.3523 298.284 23.929 298.284 20.8816C298.284 17.7975 299.098 15.3742 300.725 13.6119C302.352 11.8128 304.603 10.9133 307.478 10.9133C310.316 10.9133 312.548 11.8128 314.175 13.6119C315.839 15.3742 316.672 17.7975 316.672 20.8816C316.672 23.8923 315.839 26.2972 314.175 28.0963Z" fill="white"/>
<path d="M180.465 40.4328L194.255 1.60581H182.394L173.371 29.6383L164.291 1.60581H152.373L166.22 40.4328H180.465Z" fill="white"/>
<path fill-rule="evenodd" clip-rule="evenodd" d="M205.723 34.0993L203.566 40.4328H191.876L206.461 1.60581H219.286L233.815 40.4328H222.067L219.911 34.0993H205.723ZM217.13 25.8382L212.817 13.2814L208.561 25.8382H217.13Z" fill="white"/>
<path d="M265.872 1.60581V10.1973H255.203V40.4328H244.08V10.1973H233.524V1.60581H265.872Z" fill="white"/>
<path d="M282.246 1.60581V40.4328H271.123V1.60581H282.246Z" fill="white"/>
<path d="M358.617 40.4328H369.74V1.60581H358.617V23.5802L343.805 1.60581H332.682V40.4328H343.805V18.7337L358.617 40.4328Z" fill="white"/>
<path fill-rule="evenodd" clip-rule="evenodd" d="M43.6106 108.163H32.6415L29.2954 104.973C25.5906 107.476 21.4007 108.728 16.726 108.728C11.9931 108.728 8.2397 107.674 5.46589 105.566C2.69208 103.457 1.30518 100.606 1.30518 97.0102C1.30518 94.4313 1.88709 92.2383 3.05093 90.4312C4.23416 88.6052 6.25148 86.9017 9.10288 85.3204C7.64808 83.7016 6.59093 82.158 5.93142 80.6897C5.27192 79.2026 4.94216 77.5838 4.94216 75.8331C4.94216 72.9719 6.0672 70.6659 8.31729 68.9153C10.5868 67.1647 13.6127 66.2893 17.3952 66.2893C21.0031 66.2893 23.8836 67.1082 26.0367 68.7459C28.2092 70.3647 29.2954 72.5389 29.2954 75.2684C29.2954 77.5085 28.6262 79.5603 27.2878 81.4239C25.9494 83.2686 23.7866 85.0287 20.7994 86.704L29.0627 94.5254C30.4399 92.323 31.6328 89.49 32.6415 86.0263H41.894C41.1957 88.5676 40.2355 91.0523 39.0135 93.4807C37.7914 95.8901 36.4045 98.0266 34.8527 99.8902L43.6106 108.163ZM10.645 96.1913C10.645 97.8102 11.2657 99.0996 12.5071 100.06C13.7679 101.02 15.3779 101.5 17.337 101.5C19.7811 101.5 21.9827 100.926 23.9418 99.7773L14.2819 90.4594C13.1569 91.2877 12.2646 92.1536 11.6051 93.0571C10.965 93.9607 10.645 95.0054 10.645 96.1913ZM21.0904 76.172C21.0904 75.1743 20.7412 74.3931 20.0429 73.8284C19.3446 73.2448 18.4427 72.9531 17.337 72.9531C16.0374 72.9531 15.0093 73.2542 14.2529 73.8566C13.5158 74.459 13.1472 75.3155 13.1472 76.4261C13.1472 78.0826 14.0686 79.9085 15.9113 81.9039C17.5795 81.0003 18.8597 80.1156 19.752 79.2497C20.6443 78.365 21.0904 77.339 21.0904 76.172Z" fill="white"/>
<path d="M70.8768 105.354C73.8657 107.483 77.6869 108.548 82.3405 108.548C85.405 108.548 88.0534 108.016 90.2856 106.951C92.5556 105.886 94.2771 104.436 95.4499 102.6C96.6606 100.764 97.266 98.69 97.266 96.3769C97.266 94.1005 96.6606 92.228 95.4499 90.7593C94.2771 89.254 92.8583 88.0975 91.1936 87.2897C89.5668 86.4452 87.4859 85.6008 84.951 84.7563C83.2485 84.1689 81.9622 83.6915 81.092 83.3244C80.2218 82.9205 79.484 82.4616 78.8787 81.9475C78.3112 81.3968 78.0274 80.7543 78.0274 80.02C78.0274 79.1388 78.2923 78.4595 78.8219 77.9822C79.3516 77.5049 80.0326 77.2663 80.865 77.2663C81.9622 77.2663 82.8513 77.56 83.5323 78.1475C84.2511 78.7349 84.6294 79.6161 84.6673 80.791H96.7552C96.566 76.9725 95.0716 74.0169 92.2719 71.9241C89.51 69.7946 85.8023 68.7298 81.1487 68.7298C78.2734 68.7298 75.7006 69.1888 73.4306 70.1067C71.1606 71.0246 69.3824 72.3831 68.096 74.1821C66.8097 75.9445 66.1665 78.074 66.1665 80.5707C66.1665 83.0307 66.7529 85.0317 67.9258 86.5737C69.1365 88.0791 70.5363 89.2356 72.1253 90.0434C73.7522 90.8144 75.8709 91.6222 78.4814 92.4666C80.9406 93.2377 82.7188 93.9353 83.816 94.5594C84.9132 95.1836 85.4618 96.0648 85.4618 97.203C85.4618 98.0841 85.1213 98.7817 84.4403 99.2958C83.7971 99.7731 82.9648 100.012 81.9432 100.012C80.8082 100.012 79.8813 99.6997 79.1625 99.0755C78.4436 98.4513 78.0274 97.46 77.9139 96.1015H66.053C66.28 100.104 67.8879 103.188 70.8768 105.354Z" fill="white"/>
<path d="M117.533 84.3157V77.9822H132.004V69.3357H106.41V108.163H132.004V99.5161H117.533V92.5217H130.302V84.3157H117.533Z" fill="white"/>
<path d="M140.111 88.6665C140.111 84.8481 140.925 81.4519 142.551 78.4779C144.216 75.4672 146.562 73.1357 149.588 71.4835C152.615 69.7946 156.096 68.9501 160.031 68.9501C165.025 68.9501 169.224 70.2536 172.629 72.8604C176.034 75.4305 178.229 78.9368 179.212 83.3795H167.238C166.519 81.9108 165.517 80.791 164.23 80.02C162.982 79.2489 161.525 78.8634 159.86 78.8634C157.288 78.8634 155.226 79.763 153.675 81.562C152.161 83.3244 151.405 85.6926 151.405 88.6665C151.405 91.6772 152.161 94.0821 153.675 95.8812C155.226 97.6436 157.288 98.5247 159.86 98.5247C161.525 98.5247 162.982 98.1392 164.23 97.3682C165.517 96.5972 166.519 95.4773 167.238 94.0087H179.212C178.229 98.4513 176.034 101.976 172.629 104.583C169.224 107.153 165.025 108.438 160.031 108.438C156.096 108.438 152.615 107.612 149.588 105.96C146.562 104.271 144.216 101.939 142.551 98.9653C140.925 95.9546 140.111 92.5217 140.111 88.6665Z" fill="white"/>
<path d="M199.348 91.8608V69.3357H188.282V91.8608C188.282 95.459 189.001 98.5064 190.438 101.003C191.914 103.5 193.919 105.391 196.454 106.676C199.027 107.924 201.94 108.548 205.194 108.548C208.447 108.548 211.398 107.924 214.047 106.676C216.733 105.391 218.852 103.5 220.403 101.003C221.954 98.4697 222.73 95.4223 222.73 91.8608V69.3357H211.607V91.8608C211.607 93.9169 211.077 95.5324 210.018 96.7073C208.996 97.8455 207.464 98.4146 205.421 98.4146C203.378 98.4146 201.845 97.8455 200.824 96.7073C199.84 95.5691 199.348 93.9536 199.348 91.8608Z" fill="white"/>
<path fill-rule="evenodd" clip-rule="evenodd" d="M245.141 93.8435H243.95V108.163H232.826V69.3357H250.362C253.578 69.3357 256.302 69.8864 258.535 70.9879C260.767 72.0526 262.45 73.5396 263.585 75.4488C264.72 77.3214 265.288 79.4325 265.288 81.7823C265.288 84.4259 264.531 86.7573 263.018 88.7767C261.542 90.7593 259.367 92.1729 256.492 93.0174L265.515 108.163H253.087L245.141 93.8435ZM243.95 86.4636H249.454C250.968 86.4636 252.103 86.1148 252.86 85.4172C253.616 84.7196 253.995 83.7099 253.995 82.3881C253.995 81.1398 253.597 80.1668 252.803 79.4692C252.046 78.7349 250.93 78.3678 249.454 78.3678H243.95V86.4636Z" fill="white"/>
<path d="M285.442 108.163V69.3357H274.319V108.163H285.442Z" fill="white"/>
<path d="M325.884 69.3357V77.9272H315.215V108.163H304.091V77.9272H293.536V69.3357H325.884Z" fill="white"/>
<path d="M356.275 95.8261L370.349 69.3357H357.807L350.77 84.3157L343.733 69.3357H331.021L345.095 95.8261V108.163H356.275V95.8261Z" fill="white"/>
<path fill-rule="evenodd" clip-rule="evenodd" d="M118.602 38.2849C121.742 39.9738 125.185 40.8183 128.931 40.8183C132.676 40.8183 136.119 39.9738 139.259 38.2849C142.399 36.5593 144.878 34.1911 146.694 31.1804C148.51 28.133 149.418 24.7001 149.418 20.8816C149.418 17.0632 148.51 13.6486 146.694 10.6379C144.878 7.59049 142.399 5.22232 139.259 3.53339C136.157 1.84446 132.714 1 128.931 1C125.185 1 121.742 1.84446 118.602 3.53339C115.462 5.22232 112.965 7.59049 111.111 10.6379C109.295 13.6486 108.387 17.0632 108.387 20.8816C108.387 24.7001 109.295 28.133 111.111 31.1804C112.965 34.1911 115.462 36.5593 118.602 38.2849ZM135.627 28.0963C134 29.8954 131.768 30.7949 128.931 30.7949C126.055 30.7949 123.804 29.9137 122.177 28.1514C120.55 26.3523 119.737 23.929 119.737 20.8816C119.737 17.7975 120.55 15.3742 122.177 13.6119C123.804 11.8128 126.055 10.9133 128.931 10.9133C131.768 10.9133 134 11.8128 135.627 13.6119C137.292 15.3742 138.124 17.7975 138.124 20.8816C138.124 23.8923 137.292 26.2972 135.627 28.0963Z" stroke="url(#paint0_linear_1_74)" stroke-width="2" mask="url(#path-1-outside-1_1_74)"/>
<path d="M13.2204 40.4328V1.60581H2.09726V40.4328H13.2204Z" stroke="url(#paint1_linear_1_74)" stroke-width="2" mask="url(#path-1-outside-1_1_74)"/>
<path d="M57.7481 40.4328H46.625L31.813 18.7337V40.4328H20.6898V1.60581H31.813L46.625 23.5802V1.60581H57.7481V40.4328Z" stroke="url(#paint2_linear_1_74)" stroke-width="2" mask="url(#path-1-outside-1_1_74)"/>
<path d="M102.278 40.4328H91.1544L76.3425 18.7337V40.4328H65.2193V1.60581H76.3425L91.1544 23.5802V1.60581H102.278V40.4328Z" stroke="url(#paint3_linear_1_74)" stroke-width="2" mask="url(#path-1-outside-1_1_74)"/>
<path fill-rule="evenodd" clip-rule="evenodd" d="M297.149 38.2849C300.29 39.9738 303.733 40.8183 307.478 40.8183C311.224 40.8183 314.667 39.9738 317.807 38.2849C320.947 36.5593 323.425 34.1911 325.241 31.1804C327.057 28.133 327.965 24.7001 327.965 20.8816C327.965 17.0632 327.057 13.6486 325.241 10.6379C323.425 7.59049 320.947 5.22232 317.807 3.53339C314.704 1.84446 311.262 1 307.478 1C303.733 1 300.29 1.84446 297.149 3.53339C294.009 5.22232 291.512 7.59049 289.658 10.6379C287.842 13.6486 286.934 17.0632 286.934 20.8816C286.934 24.7001 287.842 28.133 289.658 31.1804C291.512 34.1911 294.009 36.5593 297.149 38.2849ZM314.175 28.0963C312.548 29.8954 310.316 30.7949 307.478 30.7949C304.603 30.7949 302.352 29.9137 300.725 28.1513C299.098 26.3523 298.284 23.929 298.284 20.8816C298.284 17.7975 299.098 15.3742 300.725 13.6119C302.352 11.8128 304.603 10.9133 307.478 10.9133C310.316 10.9133 312.548 11.8128 314.175 13.6119C315.839 15.3742 316.672 17.7975 316.672 20.8816C316.672 23.8923 315.839 26.2972 314.175 28.0963Z" stroke="url(#paint4_linear_1_74)" stroke-width="2" mask="url(#path-1-outside-1_1_74)"/>
<path d="M180.465 40.4328L194.255 1.60581H182.394L173.371 29.6383L164.291 1.60581H152.373L166.22 40.4328H180.465Z" stroke="url(#paint5_linear_1_74)" stroke-width="2" mask="url(#path-1-outside-1_1_74)"/>
<path fill-rule="evenodd" clip-rule="evenodd" d="M205.723 34.0993L203.566 40.4328H191.876L206.461 1.60581H219.286L233.815 40.4328H222.067L219.911 34.0993H205.723ZM217.13 25.8382L212.817 13.2814L208.561 25.8382H217.13Z" stroke="url(#paint6_linear_1_74)" stroke-width="2" mask="url(#path-1-outside-1_1_74)"/>
<path d="M265.872 1.60581V10.1973H255.203V40.4328H244.08V10.1973H233.524V1.60581H265.872Z" stroke="url(#paint7_linear_1_74)" stroke-width="2" mask="url(#path-1-outside-1_1_74)"/>
<path d="M282.246 1.60581V40.4328H271.123V1.60581H282.246Z" stroke="url(#paint8_linear_1_74)" stroke-width="2" mask="url(#path-1-outside-1_1_74)"/>
<path d="M358.617 40.4328H369.74V1.60581H358.617V23.5802L343.805 1.60581H332.682V40.4328H343.805V18.7337L358.617 40.4328Z" stroke="url(#paint9_linear_1_74)" stroke-width="2" mask="url(#path-1-outside-1_1_74)"/>
<path fill-rule="evenodd" clip-rule="evenodd" d="M43.6106 108.163H32.6415L29.2954 104.973C25.5906 107.476 21.4007 108.728 16.726 108.728C11.9931 108.728 8.2397 107.674 5.46589 105.566C2.69208 103.457 1.30518 100.606 1.30518 97.0102C1.30518 94.4313 1.88709 92.2383 3.05093 90.4312C4.23416 88.6052 6.25148 86.9017 9.10288 85.3204C7.64808 83.7016 6.59093 82.158 5.93142 80.6897C5.27192 79.2026 4.94216 77.5838 4.94216 75.8331C4.94216 72.9719 6.0672 70.6659 8.31729 68.9153C10.5868 67.1647 13.6127 66.2893 17.3952 66.2893C21.0031 66.2893 23.8836 67.1082 26.0367 68.7459C28.2092 70.3647 29.2954 72.5389 29.2954 75.2684C29.2954 77.5085 28.6262 79.5603 27.2878 81.4239C25.9494 83.2686 23.7866 85.0287 20.7994 86.704L29.0627 94.5254C30.4399 92.323 31.6328 89.49 32.6415 86.0263H41.894C41.1957 88.5676 40.2355 91.0523 39.0135 93.4807C37.7914 95.8901 36.4045 98.0266 34.8527 99.8902L43.6106 108.163ZM10.645 96.1913C10.645 97.8102 11.2657 99.0996 12.5071 100.06C13.7679 101.02 15.3779 101.5 17.337 101.5C19.7811 101.5 21.9827 100.926 23.9418 99.7773L14.2819 90.4594C13.1569 91.2877 12.2646 92.1536 11.6051 93.0571C10.965 93.9607 10.645 95.0054 10.645 96.1913ZM21.0904 76.172C21.0904 75.1743 20.7412 74.3931 20.0429 73.8284C19.3446 73.2448 18.4427 72.9531 17.337 72.9531C16.0374 72.9531 15.0093 73.2542 14.2529 73.8566C13.5158 74.459 13.1472 75.3155 13.1472 76.4261C13.1472 78.0826 14.0686 79.9085 15.9113 81.9039C17.5795 81.0003 18.8597 80.1156 19.752 79.2497C20.6443 78.365 21.0904 77.339 21.0904 76.172Z" stroke="url(#paint10_linear_1_74)" stroke-width="2" mask="url(#path-1-outside-1_1_74)"/>
<path d="M70.8768 105.354C73.8657 107.483 77.6869 108.548 82.3405 108.548C85.405 108.548 88.0534 108.016 90.2856 106.951C92.5556 105.886 94.2771 104.436 95.4499 102.6C96.6606 100.764 97.266 98.69 97.266 96.3769C97.266 94.1005 96.6606 92.228 95.4499 90.7593C94.2771 89.254 92.8583 88.0975 91.1936 87.2897C89.5668 86.4452 87.4859 85.6008 84.951 84.7563C83.2485 84.1689 81.9622 83.6915 81.092 83.3244C80.2218 82.9205 79.484 82.4616 78.8787 81.9475C78.3112 81.3968 78.0274 80.7543 78.0274 80.02C78.0274 79.1388 78.2923 78.4595 78.8219 77.9822C79.3516 77.5049 80.0326 77.2663 80.865 77.2663C81.9622 77.2663 82.8513 77.56 83.5323 78.1475C84.2511 78.7349 84.6294 79.6161 84.6673 80.791H96.7552C96.566 76.9725 95.0716 74.0169 92.2719 71.9241C89.51 69.7946 85.8023 68.7298 81.1487 68.7298C78.2734 68.7298 75.7006 69.1888 73.4306 70.1067C71.1606 71.0246 69.3824 72.3831 68.096 74.1821C66.8097 75.9445 66.1665 78.074 66.1665 80.5707C66.1665 83.0307 66.7529 85.0317 67.9258 86.5737C69.1365 88.0791 70.5363 89.2356 72.1253 90.0434C73.7522 90.8144 75.8709 91.6222 78.4814 92.4666C80.9406 93.2377 82.7188 93.9353 83.816 94.5594C84.9132 95.1836 85.4618 96.0648 85.4618 97.203C85.4618 98.0841 85.1213 98.7817 84.4403 99.2958C83.7971 99.7731 82.9648 100.012 81.9432 100.012C80.8082 100.012 79.8813 99.6997 79.1625 99.0755C78.4436 98.4513 78.0274 97.46 77.9139 96.1015H66.053C66.28 100.104 67.8879 103.188 70.8768 105.354Z" stroke="url(#paint11_linear_1_74)" stroke-width="2" mask="url(#path-1-outside-1_1_74)"/>
<path d="M117.533 84.3157V77.9822H132.004V69.3357H106.41V108.163H132.004V99.5161H117.533V92.5217H130.302V84.3157H117.533Z" stroke="url(#paint12_linear_1_74)" stroke-width="2" mask="url(#path-1-outside-1_1_74)"/>
<path d="M140.111 88.6665C140.111 84.8481 140.925 81.4519 142.551 78.4779C144.216 75.4672 146.562 73.1357 149.588 71.4835C152.615 69.7946 156.096 68.9501 160.031 68.9501C165.025 68.9501 169.224 70.2536 172.629 72.8604C176.034 75.4305 178.229 78.9368 179.212 83.3795H167.238C166.519 81.9108 165.517 80.791 164.23 80.02C162.982 79.2489 161.525 78.8634 159.86 78.8634C157.288 78.8634 155.226 79.763 153.675 81.562C152.161 83.3244 151.405 85.6926 151.405 88.6665C151.405 91.6772 152.161 94.0821 153.675 95.8812C155.226 97.6436 157.288 98.5247 159.86 98.5247C161.525 98.5247 162.982 98.1392 164.23 97.3682C165.517 96.5972 166.519 95.4773 167.238 94.0087H179.212C178.229 98.4513 176.034 101.976 172.629 104.583C169.224 107.153 165.025 108.438 160.031 108.438C156.096 108.438 152.615 107.612 149.588 105.96C146.562 104.271 144.216 101.939 142.551 98.9653C140.925 95.9546 140.111 92.5217 140.111 88.6665Z" stroke="url(#paint13_linear_1_74)" stroke-width="2" mask="url(#path-1-outside-1_1_74)"/>
<path d="M199.348 91.8608V69.3357H188.282V91.8608C188.282 95.459 189.001 98.5064 190.438 101.003C191.914 103.5 193.919 105.391 196.454 106.676C199.027 107.924 201.94 108.548 205.194 108.548C208.447 108.548 211.398 107.924 214.047 106.676C216.733 105.391 218.852 103.5 220.403 101.003C221.954 98.4697 222.73 95.4223 222.73 91.8608V69.3357H211.607V91.8608C211.607 93.9169 211.077 95.5324 210.018 96.7073C208.996 97.8455 207.464 98.4146 205.421 98.4146C203.378 98.4146 201.845 97.8455 200.824 96.7073C199.84 95.5691 199.348 93.9536 199.348 91.8608Z" stroke="url(#paint14_linear_1_74)" stroke-width="2" mask="url(#path-1-outside-1_1_74)"/>
<path fill-rule="evenodd" clip-rule="evenodd" d="M245.141 93.8435H243.95V108.163H232.826V69.3357H250.362C253.578 69.3357 256.302 69.8864 258.535 70.9879C260.767 72.0526 262.45 73.5396 263.585 75.4488C264.72 77.3214 265.288 79.4325 265.288 81.7823C265.288 84.4259 264.531 86.7573 263.018 88.7767C261.542 90.7593 259.367 92.1729 256.492 93.0174L265.515 108.163H253.087L245.141 93.8435ZM243.95 86.4636H249.454C250.968 86.4636 252.103 86.1148 252.86 85.4172C253.616 84.7196 253.995 83.7099 253.995 82.3881C253.995 81.1398 253.597 80.1668 252.803 79.4692C252.046 78.7349 250.93 78.3678 249.454 78.3678H243.95V86.4636Z" stroke="url(#paint15_linear_1_74)" stroke-width="2" mask="url(#path-1-outside-1_1_74)"/>
<path d="M285.442 108.163V69.3357H274.319V108.163H285.442Z" stroke="url(#paint16_linear_1_74)" stroke-width="2" mask="url(#path-1-outside-1_1_74)"/>
<path d="M325.884 69.3357V77.9272H315.215V108.163H304.091V77.9272H293.536V69.3357H325.884Z" stroke="url(#paint17_linear_1_74)" stroke-width="2" mask="url(#path-1-outside-1_1_74)"/>
<path d="M356.275 95.8261L370.349 69.3357H357.807L350.77 84.3157L343.733 69.3357H331.021L345.095 95.8261V108.163H356.275V95.8261Z" stroke="url(#paint18_linear_1_74)" stroke-width="2" mask="url(#path-1-outside-1_1_74)"/>
<defs>
<linearGradient id="paint0_linear_1_74" x1="185.827" y1="1" x2="185.827" y2="107.322" gradientUnits="userSpaceOnUse">
<stop stop-color="#AACCFF" stop-opacity="0.7"/>
<stop offset="0.494792" stop-color="#C1CFFF" stop-opacity="0"/>
<stop offset="1" stop-color="#DAE2FF" stop-opacity="0.42"/>
</linearGradient>
<linearGradient id="paint1_linear_1_74" x1="185.827" y1="1" x2="185.827" y2="107.322" gradientUnits="userSpaceOnUse">
<stop stop-color="#AACCFF" stop-opacity="0.7"/>
<stop offset="0.494792" stop-color="#C1CFFF" stop-opacity="0"/>
<stop offset="1" stop-color="#DAE2FF" stop-opacity="0.42"/>
</linearGradient>
<linearGradient id="paint2_linear_1_74" x1="185.827" y1="1" x2="185.827" y2="107.322" gradientUnits="userSpaceOnUse">
<stop stop-color="#AACCFF" stop-opacity="0.7"/>
<stop offset="0.494792" stop-color="#C1CFFF" stop-opacity="0"/>
<stop offset="1" stop-color="#DAE2FF" stop-opacity="0.42"/>
</linearGradient>
<linearGradient id="paint3_linear_1_74" x1="185.827" y1="1" x2="185.827" y2="107.322" gradientUnits="userSpaceOnUse">
<stop stop-color="#AACCFF" stop-opacity="0.7"/>
<stop offset="0.494792" stop-color="#C1CFFF" stop-opacity="0"/>
<stop offset="1" stop-color="#DAE2FF" stop-opacity="0.42"/>
</linearGradient>
<linearGradient id="paint4_linear_1_74" x1="185.827" y1="1" x2="185.827" y2="107.322" gradientUnits="userSpaceOnUse">
<stop stop-color="#AACCFF" stop-opacity="0.7"/>
<stop offset="0.494792" stop-color="#C1CFFF" stop-opacity="0"/>
<stop offset="1" stop-color="#DAE2FF" stop-opacity="0.42"/>
</linearGradient>
<linearGradient id="paint5_linear_1_74" x1="185.827" y1="1" x2="185.827" y2="107.322" gradientUnits="userSpaceOnUse">
<stop stop-color="#AACCFF" stop-opacity="0.7"/>
<stop offset="0.494792" stop-color="#C1CFFF" stop-opacity="0"/>
<stop offset="1" stop-color="#DAE2FF" stop-opacity="0.42"/>
</linearGradient>
<linearGradient id="paint6_linear_1_74" x1="185.827" y1="1" x2="185.827" y2="107.322" gradientUnits="userSpaceOnUse">
<stop stop-color="#AACCFF" stop-opacity="0.7"/>
<stop offset="0.494792" stop-color="#C1CFFF" stop-opacity="0"/>
<stop offset="1" stop-color="#DAE2FF" stop-opacity="0.42"/>
</linearGradient>
<linearGradient id="paint7_linear_1_74" x1="185.827" y1="1" x2="185.827" y2="107.322" gradientUnits="userSpaceOnUse">
<stop stop-color="#AACCFF" stop-opacity="0.7"/>
<stop offset="0.494792" stop-color="#C1CFFF" stop-opacity="0"/>
<stop offset="1" stop-color="#DAE2FF" stop-opacity="0.42"/>
</linearGradient>
<linearGradient id="paint8_linear_1_74" x1="185.827" y1="1" x2="185.827" y2="107.322" gradientUnits="userSpaceOnUse">
<stop stop-color="#AACCFF" stop-opacity="0.7"/>
<stop offset="0.494792" stop-color="#C1CFFF" stop-opacity="0"/>
<stop offset="1" stop-color="#DAE2FF" stop-opacity="0.42"/>
</linearGradient>
<linearGradient id="paint9_linear_1_74" x1="185.827" y1="1" x2="185.827" y2="107.322" gradientUnits="userSpaceOnUse">
<stop stop-color="#AACCFF" stop-opacity="0.7"/>
<stop offset="0.494792" stop-color="#C1CFFF" stop-opacity="0"/>
<stop offset="1" stop-color="#DAE2FF" stop-opacity="0.42"/>
</linearGradient>
<linearGradient id="paint10_linear_1_74" x1="185.827" y1="1" x2="185.827" y2="107.322" gradientUnits="userSpaceOnUse">
<stop stop-color="#AACCFF" stop-opacity="0.7"/>
<stop offset="0.494792" stop-color="#C1CFFF" stop-opacity="0"/>
<stop offset="1" stop-color="#DAE2FF" stop-opacity="0.42"/>
</linearGradient>
<linearGradient id="paint11_linear_1_74" x1="185.827" y1="1" x2="185.827" y2="107.322" gradientUnits="userSpaceOnUse">
<stop stop-color="#AACCFF" stop-opacity="0.7"/>
<stop offset="0.494792" stop-color="#C1CFFF" stop-opacity="0"/>
<stop offset="1" stop-color="#DAE2FF" stop-opacity="0.42"/>
</linearGradient>
<linearGradient id="paint12_linear_1_74" x1="185.827" y1="1" x2="185.827" y2="107.322" gradientUnits="userSpaceOnUse">
<stop stop-color="#AACCFF" stop-opacity="0.7"/>
<stop offset="0.494792" stop-color="#C1CFFF" stop-opacity="0"/>
<stop offset="1" stop-color="#DAE2FF" stop-opacity="0.42"/>
</linearGradient>
<linearGradient id="paint13_linear_1_74" x1="185.827" y1="1" x2="185.827" y2="107.322" gradientUnits="userSpaceOnUse">
<stop stop-color="#AACCFF" stop-opacity="0.7"/>
<stop offset="0.494792" stop-color="#C1CFFF" stop-opacity="0"/>
<stop offset="1" stop-color="#DAE2FF" stop-opacity="0.42"/>
</linearGradient>
<linearGradient id="paint14_linear_1_74" x1="185.827" y1="1" x2="185.827" y2="107.322" gradientUnits="userSpaceOnUse">
<stop stop-color="#AACCFF" stop-opacity="0.7"/>
<stop offset="0.494792" stop-color="#C1CFFF" stop-opacity="0"/>
<stop offset="1" stop-color="#DAE2FF" stop-opacity="0.42"/>
</linearGradient>
<linearGradient id="paint15_linear_1_74" x1="185.827" y1="1" x2="185.827" y2="107.322" gradientUnits="userSpaceOnUse">
<stop stop-color="#AACCFF" stop-opacity="0.7"/>
<stop offset="0.494792" stop-color="#C1CFFF" stop-opacity="0"/>
<stop offset="1" stop-color="#DAE2FF" stop-opacity="0.42"/>
</linearGradient>
<linearGradient id="paint16_linear_1_74" x1="185.827" y1="1" x2="185.827" y2="107.322" gradientUnits="userSpaceOnUse">
<stop stop-color="#AACCFF" stop-opacity="0.7"/>
<stop offset="0.494792" stop-color="#C1CFFF" stop-opacity="0"/>
<stop offset="1" stop-color="#DAE2FF" stop-opacity="0.42"/>
</linearGradient>
<linearGradient id="paint17_linear_1_74" x1="185.827" y1="1" x2="185.827" y2="107.322" gradientUnits="userSpaceOnUse">
<stop stop-color="#AACCFF" stop-opacity="0.7"/>
<stop offset="0.494792" stop-color="#C1CFFF" stop-opacity="0"/>
<stop offset="1" stop-color="#DAE2FF" stop-opacity="0.42"/>
</linearGradient>
<linearGradient id="paint18_linear_1_74" x1="185.827" y1="1" x2="185.827" y2="107.322" gradientUnits="userSpaceOnUse">
<stop stop-color="#AACCFF" stop-opacity="0.7"/>
<stop offset="0.494792" stop-color="#C1CFFF" stop-opacity="0"/>
<stop offset="1" stop-color="#DAE2FF" stop-opacity="0.42"/>
</linearGradient>
</defs>
</svg>
